<?xml version="1.0" encoding="UTF-8" standalone="no"?>
<svg
   xmlns:dc="http://purl.org/dc/elements/1.1/"
   xmlns:cc="http://creativecommons.org/ns#"
   xmlns:rdf="http://www.w3.org/1999/02/22-rdf-syntax-ns#"
   xmlns:svg="http://www.w3.org/2000/svg"
   xmlns="http://www.w3.org/2000/svg"
   xmlns:sodipodi="http://sodipodi.sourceforge.net/DTD/sodipodi-0.dtd"
   xmlns:inkscape="http://www.inkscape.org/namespaces/inkscape"
   version="1.0"
   width="375.000000pt"
   height="45.000000pt"
   viewBox="0 0 375.000000 45.000000"
   preserveAspectRatio="xMidYMid meet"
   id="svg22"
   sodipodi:docname="MAMPU.svg"
   inkscape:version="0.92.2 (5c3e80d, 2017-08-06)">
  <defs
     id="defs26" />
  <sodipodi:namedview
     pagecolor="#ffffff"
     bordercolor="#666666"
     borderopacity="1"
     objecttolerance="10"
     gridtolerance="10"
     guidetolerance="10"
     inkscape:pageopacity="0"
     inkscape:pageshadow="2"
     inkscape:window-width="1920"
     inkscape:window-height="1017"
     id="namedview24"
     showgrid="false"
     inkscape:zoom="0.586"
     inkscape:cx="250"
     inkscape:cy="30"
     inkscape:window-x="-4"
     inkscape:window-y="-4"
     inkscape:window-maximized="1"
     inkscape:current-layer="g20" />
  <metadata
     id="metadata2">
Created by potrace 1.15, written by Peter Selinger 2001-2017
<rdf:RDF>
  <cc:Work
     rdf:about="">
    <dc:format>image/svg+xml</dc:format>
    <dc:type
       rdf:resource="http://purl.org/dc/dcmitype/StillImage" />
  </cc:Work>
</rdf:RDF>
</metadata>
  <g
     transform="translate(0.000000,45.000000) scale(0.100000,-0.100000)"
     fill="#000000"
     stroke="none"
     id="g20">
    <path
       d="m 1252,420 c -90,-84 26,-213 122,-137 24,19 29,31 29,67 0,36 -5,48 -29,67 -37,29 -92,31 -122,3 z"
       id="path6"
       inkscape:connector-curvature="0" />
    <path
       d="M 1430,220 V 0 h 115 115 v 150 c 0,167 -8,199 -58,242 -29,24 -105,48 -152,48 -19,0 -20,-9 -20,-220 z"
       id="path8"
       inkscape:connector-curvature="0" />
    <path
       d="m 2507,423 c -4,-3 -7,-33 -7,-65 v -58 h 131 c 131,0 169,-8 169,-36 0,-25 -46,-34 -176,-34 h -125 l 3,-102 3,-103 h 80 80 l 3,36 3,37 82,4 c 137,7 187,51 187,163 0,76 -24,119 -83,145 -35,17 -66,20 -193,20 -83,0 -154,-3 -157,-7 z"
       id="path10"
       inkscape:connector-curvature="0" />
    <path
       d="m 2994,416 c -3,-9 -4,-77 -2,-153 5,-213 32,-243 218,-243 122,0 162,15 195,70 18,31 20,52 20,185 v 150 h -75 -75 l -3,-129 c -1,-75 -7,-135 -14,-143 -14,-17 -82,-17 -96,0 -7,8 -13,68 -14,143 l -3,129 -73,3 c -57,2 -73,0 -78,-12 z"
       id="path12"
       inkscape:connector-curvature="0" />
    <path
       d="M 523,228 C 479,122 445,32 447,27 c 2,-4 39,-7 82,-7 h 79 l 33,80 c 18,44 35,80 38,80 4,0 19,-36 35,-80 l 28,-80 h 73 74 l 27,85 c 16,47 31,82 35,77 4,-4 21,-41 37,-82 l 30,-75 81,-3 c 61,-2 81,0 81,10 0,7 -35,97 -77,201 l -77,187 h -71 -70 l -35,-96 c -19,-52 -36,-92 -38,-87 -2,4 -18,46 -35,93 l -32,85 -71,3 -70,3 z"
       id="path14"
       inkscape:connector-curvature="0" />
    <path
       d="M 1867,408 C 1800,247 1710,26 1710,24 c 0,-2 38,-4 84,-4 h 84 l 35,88 c 21,52 38,81 41,72 3,-8 16,-46 29,-85 l 24,-70 71,-3 c 69,-3 71,-2 85,25 8,15 23,54 33,85 9,32 20,55 23,52 3,-3 19,-40 36,-82 l 31,-77 82,-3 c 56,-2 82,1 82,8 0,7 -35,97 -77,201 l -78,189 h -70 -71 l -34,-94 c -19,-52 -36,-93 -38,-91 -2,2 -18,43 -36,92 l -33,88 -70,3 c -50,2 -72,-1 -76,-10 z"
       id="path16"
       inkscape:connector-curvature="0" />
    <path
       d="m 1367,245 c -32,-29 -63,-32 -95,-9 -21,14 -24,14 -52,-15 -26,-25 -30,-37 -30,-81 0,-100 40,-140 142,-140 h 68 v 135 c 0,74 -1,135 -2,135 -2,0 -16,-12 -31,-25 z"
       id="path18"
       inkscape:connector-curvature="0" />
  </g>
</svg>
